<?xml version="1.0" encoding="utf-8"?>
<!-- Generator: Adobe Illustrator 23.1.0, SVG Export Plug-In . SVG Version: 6.00 Build 0)  -->
<svg version="1.1" id="Layer_2" xmlns="http://www.w3.org/2000/svg" xmlns:xlink="http://www.w3.org/1999/xlink" x="0px" y="0px"
	 viewBox="0 0 1401.6 328.8" style="enable-background:new 0 0 1401.6 328.8;" xml:space="preserve">
<g>
	<path d="M0,209.4v-1.2h31.6v0.8c0,10.7,4.4,19.1,13.3,25.4c8.8,6.2,22.5,9.4,40.9,9.4c16.6,0,29.7-2.7,39.2-8.2
		c9.5-5.5,14.2-13.4,14.2-23.8c0-8.6-3.4-15.1-10.3-19.5c-6.9-4.4-17.9-7.4-33-9l-28.5-3.5c-22.1-2.6-38.4-8.3-48.8-17
		c-10.4-8.7-15.6-21-15.6-36.9c0-18.5,7.3-33,21.8-43.5s34.3-15.8,59.3-15.8c26,0,46.4,5.3,61.2,16c14.8,10.7,22.2,25.1,22.2,43.3
		v1.6h-31.6v-1.2c0-10.7-4.5-18.8-13.5-24.4c-9-5.6-21.6-8.4-38-8.4c-16.6,0-29.1,2.6-37.4,7.8c-8.3,5.2-12.5,12.6-12.5,22.2
		c0,8.3,3,14.6,9,18.9s16.3,7.2,30.8,8.8l30.4,3.9c22.4,2.6,38.9,8.3,49.7,17.2s16.2,21.3,16.2,37.4c0,19.5-7.7,34.6-23.2,45.4
		c-15.5,10.8-36.6,16.2-63.4,16.2c-26.5,0-47.2-5.5-62-16.6C7.4,243.8,0,228.7,0,209.4z"/>
	<path d="M290.2,289c-5.5,14-13.4,24.2-23.8,30.4c-10.4,6.2-24.1,9.4-41,9.4h-14v-30h14c11.7,0,20.4-1.7,26.1-5.1
		c5.7-3.4,10.1-9.4,13.3-17.9l2.3-6.6L186.4,69.4h35.5l61.2,157.2l58.5-157.2h34.7L290.2,289z"/>
	<path d="M438,69.4v26.9c7-9.6,16-16.9,26.9-21.8s23.1-7.4,36.7-7.4c23.7,0,42,6.8,55,20.3s19.5,32.2,19.5,56.2v125.6h-33.1V147.8
		c0-16.9-4.2-29.6-12.7-38.2c-8.5-8.6-20.7-12.9-36.9-12.9c-16.6,0-30,4.9-40,14.8c-10,9.9-15,23.4-15,40.6v117h-33.1V69.4H438z"/>
	<path d="M620.5,179.8v-21.4c0-29.6,7.5-52.5,22.4-68.6c14.9-16.1,34.8-24.2,59.5-24.2c14,0,26.7,2.7,38,8.2
		c11.3,5.5,20.2,12.9,26.7,22.2V0h32.8v269.1h-32.8V243c-6.5,9.6-15.2,17-26.1,22c-10.9,5.1-23.5,7.6-37.8,7.6
		c-25.5,0-45.6-8-60.5-24C627.9,232.6,620.5,209.7,620.5,179.8z M767.1,182.5v-26.1c0-19-5.1-33.9-15.4-44.8
		c-10.3-10.9-24.5-16.4-42.7-16.4c-17.7,0-31.3,5.4-41,16.2s-14.4,27.1-14.4,48.9v17.9c0,21.8,4.9,38.2,14.6,48.9
		s23.5,16.2,41.1,16.2c18.2,0,32.4-5.5,42.5-16.4C762.1,216.1,767.1,201.2,767.1,182.5z"/>
	<path d="M886.5,0.4v35.9h-33.1V0.4H886.5z M886.5,69.4v199.7h-33.1V69.4H886.5z"/>
	<path d="M934,179v-19.9c0-30.4,8.1-53.6,24.2-69.6s38.5-24,67.1-24c26.3,0,46.8,6.4,61.6,19.3c14.8,12.9,22.2,30.6,22.2,53.2v1.9
		h-32.4v-1.9c0-13.5-4.4-24.1-13.3-31.6s-21.5-11.3-37.8-11.3c-39,0-58.5,21.6-58.5,64.7v18.3c0,43.4,19.5,65.1,58.5,65.1
		c16.4,0,29-3.8,37.8-11.3s13.3-17.9,13.3-31.2v-1.6h32.4v1.6c0,22.1-7.3,39.6-22,52.5c-14.7,12.9-35.2,19.3-61.4,19.3
		c-28.9,0-51.3-8-67.5-24C942.1,232.6,934,209.4,934,179z"/>
	<path d="M1315.5,138.8v130.3h-32.4v-22.6c-13.8,16.6-35.5,25-65.1,25c-24.2,0-42.6-5.1-55.2-15.4s-18.9-25.2-18.9-44.7
		c0-18.7,6.5-33.1,19.5-43.1c13-10,32-15,56.9-15h62v-13.7c0-30.2-17.5-45.2-52.7-45.2c-15.3,0-27,2.9-34.9,8.6
		c-7.9,5.7-11.9,13.8-11.9,24.2v1.2h-32.4v-1.2c0-18.7,7-33.5,21.1-44.3s33.3-16.2,57.7-16.2c27.8,0,49.1,6.2,64,18.5
		C1308,97.6,1315.5,115.4,1315.5,138.8z M1282.3,193.8v-15.6h-56.5c-16.9,0-29.3,2.7-37.2,8c-7.9,5.3-11.9,13.6-11.9,24.8
		c0,11.4,3.9,19.9,11.7,25.4s19.9,8.2,36.3,8.2c19.8,0,34.3-4.2,43.7-12.5C1277.6,223.7,1282.3,211,1282.3,193.8z"/>
	<path d="M1401.6,0.4v35.9h-33.1V0.4H1401.6z M1401.6,69.4v199.7h-33.1V69.4H1401.6z"/>
</g>
</svg>
