<?xml version="1.0" encoding="utf-8"?>
<!-- Generator: Adobe Illustrator 23.1.0, SVG Export Plug-In . SVG Version: 6.00 Build 0)  -->
<svg version="1.1" id="Layer_3" xmlns="http://www.w3.org/2000/svg" xmlns:xlink="http://www.w3.org/1999/xlink" x="0px" y="0px"
	 viewBox="0 0 1408.2 371.4" style="enable-background:new 0 0 1408.2 371.4;" xml:space="preserve">
<style type="text/css">
	.st0{stroke:#000000;stroke-width:5;stroke-miterlimit:10;}
</style>
<g>
	<path class="st0" d="M176.3,222c0,11.5-3.3,22.3-10,32.4c-6.7,10.1-16.3,18-28.9,23.5c-12.6,5.5-26.9,8.3-42.8,8.3
		c-26.4,0-46.4-5.5-60.3-16.4C20.5,258.8,11.7,242.6,7.9,221H43c2.5,11,7.3,19.7,14.8,26c8.7,7.3,20.9,10.9,36.6,10.9
		c15.8,0,27.5-3.2,35.1-9.6c7.7-6.4,11.5-14,11.5-22.6c0-7.8-3.4-13.9-10.1-18.3c-4.7-3-16.4-6.9-35.1-11.6
		c-25.2-6.4-42.7-11.9-52.4-16.5c-9.7-4.6-17.1-11.1-22.2-19.3c-5-8.2-7.6-17.3-7.6-27.2c0-4.1,0.6-8,1.4-11.8
		c0,0.1,0.1,0.2,0.1,0.3c5,8.2,12.4,14.6,22.2,19.3c7.4,3.6,19.3,7.5,35.9,12.2c3.9,1.1,9.1,2.6,15.4,4.3c0.4,0.1,0.8,0.2,1.2,0.3
		c1.4,0.4,2.4,0.7,3.8,1c0.4,0.1,0.7,0.2,1,0.3c24.3,6.5,41.3,11.8,50.9,16c9.6,4.1,17.1,10.1,22.6,18
		C173.6,200.5,176.3,210.3,176.3,222z M45,101.9c-2.8-3.6-4.2-7.6-4.2-12c0-1.5,0.3-2.8,0.5-4.2c4.8-2.8,10.3-5.3,17.2-7.4
		c9.2-2.7,19.1-4.1,29.7-4.1c15.9,0,29.9,2.3,41.9,6.9c12,4.6,20.9,10.8,26.6,18.6c5.7,7.8,9.6,18.2,11.8,31.2H134
		c-2.1-8.1-6-14.7-12.2-19.6c-7.3-5.8-17.7-8.8-31-8.8c-15.8,0-27.1,2.6-33.8,7.8c0,0-0.1,0-0.1,0.1C51.6,108,47.6,105.2,45,101.9z"
		/>
	<path class="st0" d="M275.6,243L214.3,81.1h37l40.2,116.2L275.6,243z M400.1,81.1l-77.2,206.3c-8.3,22.3-14.7,37.6-19.3,46
		c-6.1,11.3-13.1,19.6-21,24.9s-17.3,7.9-28.3,7.9c-6.2,0-13.1-1.3-20.6-3.8V331c5.2,1.1,10.1,1.9,14.3,1.9c7.6,0,13.8-1.3,18.3-3.8
		c4.6-2.6,7.8-6.5,11.3-10.7c8.4-10,14-32.7,14-32.7l16.5-40.1l57.5-164.4H400.1z"/>
	<path class="st0" d="M455.2,194.3c4.3-4.1,17.4-15.8,17.4-15.8v107.8h-34.4v-74.8C438.3,211.4,450.9,198.5,455.2,194.3z
		 M603.5,157.7v128.6h-34.4V157.7c0-17.2-3.7-29.7-11.2-37.5c-7.4-7.8-18-11.7-31.6-11.7c-31.8,0-88,62.4-88,62.4V83h34.4v16.1
		c37.4-32.6,84-19.5,95.1-13.6c11.1,5.9,23.8,16.2,28.6,26.6C601.1,122.7,603.5,137.8,603.5,157.7z"/>
	<path class="st0" d="M692.3,127.3c-10.5,12.6-15.8,32.2-15.8,58.6c0,25.9,5.5,45.3,16.4,58.4c10.9,13,23.9,19.6,39,19.6
		c18.5,0,33.8-8.5,43.9-26.6c13.7-24.4,12.3-49.4,12.3-49.4s22.3,25.8,29.2,34.9v64.7h-31.9v-25.4c-13.6,20-32.4,30-56.3,30
		c-24.1,0-44.7-9.5-61.9-28.5c-17.2-19-25.8-45.8-25.8-80.6c0-14.6,2-28.4,6.1-41.2c4.1-12.9,9.7-23.8,16.9-32.9
		c7.2-9.1,16.4-16.2,27.5-21.2c11.1-5,23-7.5,35.4-7.5c22.5,0,41.1,4.8,55.6,23V7.6h34.4v169.4c0,0-10.4-13.7-17.2-21.7
		c-18.6-22-44.4-46.8-69.7-46.8C715.5,108.4,702.9,114.7,692.3,127.3z"/>
	<path class="st0" d="M855.4,45.9V6.4h34.4v39.5H855.4z M855.4,286.4V83.5h34.4v202.8H855.4z"/>
	<path class="st0" d="M972.1,228.9h-36.6c-5-13.8-7.7-29.6-7.7-48c0-21.9,3.6-41,10.9-57.5c7.3-16.4,18.3-28.8,33.1-37
		c13.6-7.5,28.4-11.5,44.3-12.1c1.4-0.1,2.7-0.3,4.1-0.3c22,0,40.1,5.6,54.1,16.7c13.6,10.8,22.3,26,26.4,45.6h-35
		c-3.3-10.1-8.2-18.1-14.8-23.7c-8.1-6.9-17.9-10.3-29.3-10.3c-1.9,0-3.6,0.4-5.4,0.5c-14.8,1.2-27.1,7.1-36.8,18.1
		c-10.8,12.4-16.2,32.1-16.2,58.9C963.2,200.6,966.2,216.9,972.1,228.9z M1104.5,211.6c-3.7,23.3-13.1,41.6-28.4,54.7
		s-33.9,19.8-56.1,19.8c-1.4,0-2.6-0.3-3.9-0.3c-25.9-0.8-47-9.6-63-26.9c-0.4-0.4-0.6-1-1-1.4h64.1c1.2,0.1,2.3,0.3,3.5,0.3
		c13.5,0,24.8-4.1,33.8-12.4c8.3-7.6,13.6-19.1,16.4-34.2h32L1104.5,211.6z"/>
	<path class="st0" d="M1329.4,286.8h-35.9c-15.3-19-9.7-101.8-9.7-101.8c-12.5,5.1-31.2,9.4-56.2,13c-14.1,2-24.1,4.3-30,6.9
		c-5.9,2.5-10.4,6.3-13.6,11.2c-3.2,4.9-4.8,10.3-4.8,16.3c0,9.1,3.5,16.8,10.4,22.9c7,6.1,17.1,9.2,30.5,9.2
		c10.9,0,20.8-2.1,29.7-6c1.7,15.2,4.1,21.5,6.1,25.6c-12.6,3.9-32.2,7.3-44.1,7.3c-22.3,0-39.4-5.4-51.4-16.3
		c-12-10.9-18-24.8-18-41.7c0-9.9,2.3-19,6.8-27.2c4.5-8.2,10.4-14.8,17.8-19.8c7.3-5,15.6-8.7,24.7-11.3c6.7-1.8,16.9-3.5,30.6-5.2
		c27.8-3.3,48.2-7.3,61.3-11.9c0.1-4.7,0.2-7.7,0.2-9c0-14-3.2-23.9-9.7-29.6c-8.8-7.8-21.8-11.6-39.2-11.6
		c-16.2,0-28.1,2.8-35.8,8.5c-6.7,5-11.8,13.4-15.5,25.1h-35.1c3.1-14.2,8.1-25.6,15-34.4c7-8.9,17.1-15.7,30.4-20.4
		c13.3-4.8,28.6-7.2,46-7.2c17.3,0,31.4,2,42.2,6.1c10.8,4.1,18.8,9.2,23.9,15.4c5.1,6.2,8.7,14,10.7,23.4
		c1.1,5.9,1.7,16.4,1.7,31.7v45.8c0,32,0.7,52.2,2.2,60.6C1322.2,270.9,1325.1,279,1329.4,286.8z"/>
	<path class="st0" d="M1367.4,45.9V6.4h34.4v39.5H1367.4z M1367.4,286.4V83.5h34.4v202.8H1367.4z"/>
</g>
</svg>
