<svg width="564" height="150" viewBox="0 0 564 150" fill="none" xmlns="http://www.w3.org/2000/svg">
<path d="M124.512 64.933C124.101 64.1251 123.542 63.4 122.863 62.7945C122.093 62.1118 121.205 61.5721 120.242 61.201C119.124 60.7681 117.932 60.5544 116.732 60.5721C115.689 60.5676 114.65 60.7088 113.646 60.9914C112.734 61.2392 111.865 61.6208 111.067 62.1236C110.363 62.571 109.759 63.156 109.291 63.8428C108.848 64.4849 108.612 65.2452 108.614 66.0232C108.614 67.1414 108.995 67.9102 109.756 68.3295C110.715 68.8304 111.72 69.2376 112.758 69.5455L123.244 72.2292C125.214 72.714 127.15 73.3304 129.036 74.0742C130.766 74.7406 132.379 75.6746 133.814 76.8417C135.163 77.9567 136.259 79.3431 137.027 80.9091C137.867 82.7363 138.272 84.7305 138.211 86.7377C138.262 89.0625 137.662 91.3559 136.478 93.3629C135.292 95.2945 133.689 96.9413 131.785 98.1851C129.666 99.5613 127.318 100.555 124.85 101.12C122.053 101.78 119.185 102.103 116.31 102.085C113.473 102.107 110.649 101.696 107.938 100.869C105.5 100.138 103.21 98.9883 101.173 97.4723C99.3092 96.078 97.7668 94.3053 96.6489 92.2727C95.5442 90.2377 94.9769 87.9585 94.9999 85.6474H106.585C106.601 86.4809 106.882 87.288 107.388 87.9537C107.97 88.7529 108.685 89.4477 109.502 90.0084C111.506 91.3723 113.879 92.1032 116.31 92.105C118.642 92.172 120.959 91.6982 123.075 90.7212C124.935 89.7987 125.865 88.4709 125.865 86.7377C125.899 86.2511 125.794 85.7649 125.562 85.3347C125.331 84.9046 124.981 84.5479 124.554 84.3056C123.342 83.6803 122.047 83.2285 120.707 82.9638L110.306 80.364C108.435 79.8774 106.61 79.232 104.851 78.4351C103.199 77.6953 101.673 76.7051 100.327 75.4999C99.0413 74.34 97.9932 72.9447 97.2408 71.3905C96.4546 69.7105 96.0643 67.8751 96.0993 66.0232C96.048 63.709 96.6171 61.4228 97.7482 59.398C98.8493 57.4955 100.366 55.8621 102.188 54.6177C104.185 53.2716 106.402 52.2785 108.741 51.6825C111.349 50.9988 114.036 50.6604 116.732 50.6761C119.41 50.6516 122.072 51.0916 124.597 51.976C126.89 52.7711 129.023 53.9637 130.897 55.4983C132.634 56.9315 134.058 58.7007 135.082 60.6979C136.098 62.6855 136.62 64.8852 136.605 67.1135H125.104C125.079 66.3511 124.877 65.6047 124.512 64.933Z" fill="white"/>
<path d="M154.447 115L160.451 99.5689L141.847 52.1018H154.278L166.54 83.7186H166.709L178.97 52.1018H191.316L166.793 115H154.447Z" fill="white"/>
<path d="M197.659 52.1019H208.567V59.0627H208.736C210.123 56.6197 212.117 54.5698 214.529 53.1083C217.091 51.4897 220.234 50.679 223.958 50.6762C226.601 50.6418 229.222 51.156 231.653 52.1858C233.92 53.1633 235.952 54.6068 237.614 56.4209C239.331 58.3273 240.653 60.55 241.504 62.9623C242.457 65.6417 242.929 68.4659 242.899 71.3068V100.659H231.061V72.8164C231.074 71.3757 230.786 69.948 230.215 68.6232C229.101 66.0649 227.044 64.025 224.465 62.9204C223.157 62.3601 221.746 62.0746 220.321 62.0818C218.869 62.0683 217.429 62.3539 216.093 62.9204C213.514 64.025 211.457 66.0649 210.343 68.6232C209.77 69.9474 209.482 71.3755 209.497 72.8164V100.659H197.659V52.1019Z" fill="white"/>
<path d="M293.299 92.5244C292.379 93.8288 291.361 95.0623 290.254 96.2144C289.113 97.3981 287.819 98.4274 286.407 99.2755C284.913 100.167 283.306 100.858 281.629 101.33C279.786 101.846 277.878 102.1 275.963 102.085C272.715 102.103 269.498 101.461 266.509 100.199C263.52 98.9369 260.824 97.0814 258.586 94.7468C256.322 92.3747 254.529 89.6007 253.301 86.57C251.98 83.3195 251.319 79.8427 251.356 76.3386C251.319 72.8345 251.98 69.3577 253.301 66.1072C254.523 63.0863 256.317 60.3251 258.586 57.9724C260.806 55.6834 263.465 53.8584 266.408 52.6051C269.424 51.3124 272.678 50.6555 275.963 50.6762C279.853 50.6762 283.123 51.5148 285.773 53.1921C288.311 54.7723 290.544 56.7887 292.368 59.1465H292.537V37.7611H304.376V100.659H293.468V92.5244H293.299ZM291.396 70.8036C289.927 67.3898 287.185 64.6707 283.743 63.2139C281.982 62.457 280.081 62.0714 278.162 62.0817C276.215 62.065 274.285 62.4506 272.496 63.2139C270.792 63.9371 269.242 64.976 267.93 66.2749C266.625 67.5718 265.591 69.1106 264.886 70.8036C264.147 72.5564 263.773 74.439 263.786 76.3386C263.776 78.2515 264.15 80.1473 264.886 81.9156C265.583 83.6251 266.618 85.179 267.93 86.4862C269.242 87.7851 270.792 88.824 272.496 89.5472C274.285 90.3105 276.215 90.6961 278.162 90.6794C280.081 90.6897 281.982 90.3041 283.743 89.5472C287.2 88.0904 289.946 85.3519 291.396 81.9156C292.157 80.1537 292.546 78.2555 292.537 76.3386C292.549 74.435 292.16 72.5499 291.396 70.8036Z" fill="white"/>
<path d="M315.703 37.9288C316.964 36.6925 318.666 35.9991 320.439 35.9991C322.212 35.9991 323.913 36.6925 325.174 37.9288C325.805 38.5383 326.303 39.2695 326.637 40.0772C326.972 40.885 327.136 41.7521 327.119 42.6252C327.137 43.498 326.974 44.3651 326.64 45.1729C326.306 45.9807 325.809 46.712 325.179 47.3216C323.918 48.5579 322.216 49.2513 320.443 49.2513C318.67 49.2513 316.968 48.5579 315.708 47.3216C315.077 46.7119 314.579 45.9807 314.245 45.173C313.91 44.3653 313.746 43.4982 313.763 42.6252C313.746 41.7525 313.91 40.8858 314.244 40.0781C314.577 39.2705 315.074 38.5391 315.703 37.9288ZM326.358 100.659H314.519V52.1018H326.358V100.659Z" fill="white"/>
<path d="M369.823 64.2202C367.4 62.6098 364.537 61.7756 361.621 61.83C359.698 61.8201 357.796 62.2205 356.044 63.0041C352.589 64.5277 349.851 67.3026 348.391 70.7616C347.638 72.5259 347.249 74.4225 347.249 76.3385C347.249 78.2546 347.638 80.1511 348.391 81.9155C349.851 85.3744 352.589 88.1494 356.044 89.6729C357.798 90.4571 359.701 90.8575 361.625 90.847C364.541 90.9015 367.404 90.0672 369.827 88.4569C372.155 86.9144 373.954 84.706 374.986 82.1251H387.247C386.677 85.0194 385.619 87.7978 384.118 90.3438C382.687 92.7667 380.808 94.9005 378.58 96.6336C376.282 98.4036 373.693 99.7655 370.927 100.659C367.924 101.631 364.783 102.112 361.625 102.085C358.038 102.11 354.479 101.455 351.139 100.156C347.962 98.926 345.06 97.088 342.598 94.7467C340.113 92.356 338.138 89.4948 336.788 86.3327C335.439 83.1707 334.744 79.7721 334.744 76.3385C334.744 72.905 335.439 69.5064 336.788 66.3443C338.138 63.1822 340.113 60.321 342.598 57.9303C345.06 55.5891 347.962 53.7511 351.139 52.5211C354.479 51.2238 358.038 50.5692 361.625 50.5922C364.783 50.5675 367.924 51.0489 370.927 52.0179C373.682 52.9063 376.258 54.2689 378.537 56.0434C380.751 57.7915 382.627 59.9224 384.076 62.3332C385.603 64.8711 386.676 67.6516 387.247 70.5519H374.986C373.953 67.9705 372.152 65.762 369.823 64.2202Z" fill="white"/>
<path d="M433.329 93.5308C432.45 94.6864 431.474 95.7665 430.412 96.7596C428.106 98.9258 425.306 100.508 422.252 101.372C420.519 101.86 418.725 102.1 416.924 102.085C413.676 102.103 410.459 101.461 407.47 100.199C404.481 98.937 401.785 97.0815 399.547 94.7468C397.286 92.3723 395.493 89.5989 394.262 86.5701C392.943 83.319 392.283 79.8426 392.317 76.3387C392.283 72.8347 392.943 69.3583 394.262 66.1072C395.488 63.088 397.281 60.3274 399.547 57.9724C401.768 55.6852 404.427 53.8605 407.369 52.6051C410.386 51.3123 413.642 50.6555 416.929 50.6762C418.727 50.6606 420.519 50.8862 422.256 51.3472C423.824 51.7685 425.33 52.3886 426.738 53.1922C428.065 53.958 429.299 54.8725 430.416 55.9177C431.478 56.9109 432.454 57.9909 433.334 59.1465H433.503V52.1019H445.257V100.659H433.503V93.5308H433.329ZM432.399 70.8036C431.694 69.1107 430.659 67.5719 429.355 66.275C428.041 64.9778 426.492 63.9392 424.789 63.2139C423 62.4506 421.07 62.0651 419.123 62.0818C417.205 62.0712 415.306 62.4567 413.546 63.2139C410.104 64.6708 407.362 67.3899 405.893 70.8036C405.129 72.55 404.74 74.435 404.752 76.3387C404.743 78.2555 405.132 80.1537 405.893 81.9156C407.343 85.3519 410.089 88.0905 413.546 89.5473C415.307 90.305 417.208 90.6906 419.127 90.6794C421.075 90.6961 423.004 90.3106 424.793 89.5473C426.496 88.822 428.046 87.7833 429.359 86.4862C430.671 85.1791 431.706 83.6251 432.403 81.9156C433.137 80.1468 433.511 78.2514 433.503 76.3387C433.512 74.439 433.137 72.5567 432.399 70.8036Z" fill="white"/>
<path d="M456.584 37.9288C457.845 36.6925 459.546 35.9991 461.32 35.9991C463.093 35.9991 464.794 36.6925 466.055 37.9288C466.686 38.5383 467.183 39.2695 467.518 40.0772C467.852 40.885 468.016 41.7521 468 42.6252C468.017 43.4983 467.853 44.3656 467.519 45.1734C467.184 45.9813 466.686 46.7124 466.055 47.3216C464.794 48.5579 463.093 49.2513 461.32 49.2513C459.546 49.2513 457.845 48.5579 456.584 47.3216C455.953 46.7124 455.455 45.9813 455.12 45.1734C454.786 44.3656 454.622 43.4983 454.639 42.6252C454.623 41.7521 454.787 40.885 455.121 40.0772C455.456 39.2695 455.954 38.5383 456.584 37.9288ZM467.243 100.659H455.404V52.1018H467.243V100.659Z" fill="white"/>
</svg>
