<svg id="Layer_1" data-name="Layer 1" xmlns="http://www.w3.org/2000/svg" viewBox="0 0 882.19 188.4"><title>sai_logo</title><path d="M69.4,68.8a17.44,17.44,0,0,0-3.9-5.1,20.39,20.39,0,0,0-6.2-3.8A21.92,21.92,0,0,0,51,58.4a26.32,26.32,0,0,0-7.3,1,22.44,22.44,0,0,0-6.1,2.7,14.55,14.55,0,0,0-4.2,4.1,9.16,9.16,0,0,0-1.6,5.2q0,4,2.7,5.5a39.54,39.54,0,0,0,7.1,2.9l24.8,6.4a106.55,106.55,0,0,1,13.7,4.4,41.54,41.54,0,0,1,11.3,6.6,29.35,29.35,0,0,1,7.6,9.7,31.25,31.25,0,0,1,2.8,13.9,30,30,0,0,1-4.1,15.8,36.5,36.5,0,0,1-11.1,11.5,50.81,50.81,0,0,1-16.4,7A85,85,0,0,1,50,157.4a65.59,65.59,0,0,1-19.8-2.9,51.48,51.48,0,0,1-16-8.1A38.81,38.81,0,0,1,3.5,134,32.65,32.65,0,0,1-.4,118.2H27a9.44,9.44,0,0,0,1.9,5.5,20.66,20.66,0,0,0,5,4.9,28.49,28.49,0,0,0,16.1,5,35.47,35.47,0,0,0,16-3.3q6.6-3.3,6.6-9.5a6.19,6.19,0,0,0-3.1-5.8,34.2,34.2,0,0,0-9.1-3.2l-24.6-6.2A79.73,79.73,0,0,1,22.9,101a41.34,41.34,0,0,1-10.7-7,31.92,31.92,0,0,1-7.3-9.8A29.11,29.11,0,0,1,2.2,71.4,31.19,31.19,0,0,1,6.1,55.6,35,35,0,0,1,16.6,44.2a49.49,49.49,0,0,1,15.5-7A72.28,72.28,0,0,1,51,34.8a54.35,54.35,0,0,1,18.6,3.1,48.55,48.55,0,0,1,14.9,8.4,39.34,39.34,0,0,1,9.9,12.4A33.33,33.33,0,0,1,98,74H70.8A11.78,11.78,0,0,0,69.4,68.8Z" transform="translate(0.4 0.2)"/><path d="M140.2,188.2l14.2-36.8-44-113.2h29.4l29,75.4h.4l29-75.4h29.2l-58,150Z" transform="translate(0.4 0.2)"/><path d="M242.4,38.2h25.8V54.8h.4a39.13,39.13,0,0,1,13.7-14.2q9.09-5.79,22.3-5.8a44.83,44.83,0,0,1,18.2,3.6,41.32,41.32,0,0,1,14.1,10.1,46.47,46.47,0,0,1,9.2,15.6A58,58,0,0,1,349.4,84v70h-28V87.6a24.87,24.87,0,0,0-2-10A26.07,26.07,0,0,0,305.8,64a24.4,24.4,0,0,0-9.8-2,24.84,24.84,0,0,0-10,2,26.07,26.07,0,0,0-13.6,13.6,24.71,24.71,0,0,0-2,10V154h-28Z" transform="translate(0.4 0.2)"/><path d="M468.6,134.6a75.25,75.25,0,0,1-7.2,8.8,44.4,44.4,0,0,1-9.1,7.3,46.64,46.64,0,0,1-11.3,4.9,47.91,47.91,0,0,1-13.4,1.8,56.28,56.28,0,0,1-41.1-17.5A62,62,0,0,1,374,120.4,63.56,63.56,0,0,1,369.4,96,63.56,63.56,0,0,1,374,71.6a60.9,60.9,0,0,1,12.5-19.4A56.73,56.73,0,0,1,405,39.4a56.07,56.07,0,0,1,22.6-4.6q13.8,0,23.2,6A59.62,59.62,0,0,1,466.4,55h.4V4h28V154H469V134.6Zm-4.5-51.8A34.33,34.33,0,0,0,446,64.7,32.75,32.75,0,0,0,432.8,62a33.18,33.18,0,0,0-13.4,2.7A34.49,34.49,0,0,0,408.6,72a33.3,33.3,0,0,0-7.2,10.8A33.64,33.64,0,0,0,398.8,96a34.39,34.39,0,0,0,2.6,13.3,33,33,0,0,0,7.2,10.9,34.49,34.49,0,0,0,10.8,7.3,33.18,33.18,0,0,0,13.4,2.7,32.75,32.75,0,0,0,13.2-2.7,34.06,34.06,0,0,0,18.1-18.2A33.4,33.4,0,0,0,466.8,96,32.68,32.68,0,0,0,464.1,82.8Z" transform="translate(0.4 0.2)"/><path d="M521.59,4.4a15.93,15.93,0,0,1,22.4,0,15.24,15.24,0,0,1,4.6,11.2A15.22,15.22,0,0,1,544,26.8a15.93,15.93,0,0,1-22.4,0A15.25,15.25,0,0,1,517,15.6,15.27,15.27,0,0,1,521.59,4.4ZM546.79,154h-28V38.2h28Z" transform="translate(0.4 0.2)"/><path d="M649.59,67.1a33.71,33.71,0,0,0-19.4-5.7A31.69,31.69,0,0,0,617,64.2a35.07,35.07,0,0,0-18.1,18.5,34.11,34.11,0,0,0,0,26.6A35.07,35.07,0,0,0,617,127.8a31.69,31.69,0,0,0,13.2,2.8,33.71,33.71,0,0,0,19.4-5.7,32.62,32.62,0,0,0,12.2-15.1h29a62.67,62.67,0,0,1-7.4,19.6,53.34,53.34,0,0,1-13.1,15,59.59,59.59,0,0,1-18.1,9.6,69,69,0,0,1-22,3.4,66.62,66.62,0,0,1-24.8-4.6,61.48,61.48,0,0,1-20.2-12.9,61.16,61.16,0,0,1,0-87.8,61.48,61.48,0,0,1,20.2-12.9,66.82,66.82,0,0,1,24.8-4.6,69.33,69.33,0,0,1,22,3.4,58.37,58.37,0,0,1,18,9.6,55.48,55.48,0,0,1,13.1,15,61.15,61.15,0,0,1,7.5,19.6h-29A32.62,32.62,0,0,0,649.59,67.1Z" transform="translate(0.4 0.2)"/><path d="M799.79,137a61.49,61.49,0,0,1-6.9,7.7,46.69,46.69,0,0,1-19.3,11,44.79,44.79,0,0,1-12.6,1.7,56.28,56.28,0,0,1-41.1-17.5,62.39,62.39,0,0,1-12.5-19.5,63.75,63.75,0,0,1-4.6-24.4,63.75,63.75,0,0,1,4.6-24.4,61.25,61.25,0,0,1,12.5-19.4,56.94,56.94,0,0,1,18.5-12.8A56.11,56.11,0,0,1,761,34.8a47.15,47.15,0,0,1,12.6,1.6,44.67,44.67,0,0,1,10.6,4.4,47.42,47.42,0,0,1,8.7,6.5,61.49,61.49,0,0,1,6.9,7.7h.4V38.2H828V154h-27.8V137Zm-2.2-54.2a33.3,33.3,0,0,0-7.2-10.8,34.72,34.72,0,0,0-10.8-7.3,33.18,33.18,0,0,0-13.4-2.7A32.68,32.68,0,0,0,753,64.7a34.33,34.33,0,0,0-18.1,18.1,32.68,32.68,0,0,0-2.7,13.2,33.4,33.4,0,0,0,2.7,13.3A34.06,34.06,0,0,0,753,127.5a32.68,32.68,0,0,0,13.2,2.7,33.18,33.18,0,0,0,13.4-2.7,34.72,34.72,0,0,0,10.8-7.3,33,33,0,0,0,7.2-10.9,34.57,34.57,0,0,0,2.6-13.3A33.82,33.82,0,0,0,797.59,82.8Z" transform="translate(0.4 0.2)"/><path d="M854.79,4.4a15.93,15.93,0,0,1,22.4,0,15.24,15.24,0,0,1,4.6,11.2,15.22,15.22,0,0,1-4.6,11.2,15.93,15.93,0,0,1-22.4,0,15.22,15.22,0,0,1-4.6-11.2A15.24,15.24,0,0,1,854.79,4.4ZM880,154H852V38.2h28Z" transform="translate(0.4 0.2)"/></svg>