<?xml version="1.0" encoding="utf-8"?>
<!-- Generator: Adobe Illustrator 23.1.0, SVG Export Plug-In . SVG Version: 6.00 Build 0)  -->
<svg version="1.1" xmlns="http://www.w3.org/2000/svg" xmlns:xlink="http://www.w3.org/1999/xlink" x="0px" y="0px" width="1100px"
	 height="1100px" viewBox="0 0 1100 1100" style="enable-background:new 0 0 1100 1100;" xml:space="preserve">
<style type="text/css">
	.st0{fill:#070707;}
	.st1{fill:#F4F4F4;}
</style>
<g id="Layer_2">
	<rect class="st0" width="1100" height="1100"/>
</g>
<g id="Layer_1">
	<title>sai_logo</title>
	<path class="st1" d="M178.7,526.9c-1-1.9-2.3-3.7-3.9-5.1c-1.8-1.6-3.9-2.9-6.2-3.8c-2.6-1-5.5-1.5-8.3-1.5c-2.5,0-4.9,0.3-7.3,1
		c-2.2,0.6-4.2,1.5-6.1,2.7c-1.7,1.1-3.1,2.5-4.2,4.1c-1,1.5-1.6,3.3-1.6,5.2c0,2.7,0.9,4.5,2.7,5.5c2.3,1.2,4.6,2.2,7.1,2.9
		l24.8,6.4c4.7,1.2,9.2,2.6,13.7,4.4c4.1,1.6,7.9,3.8,11.3,6.6c3.2,2.7,5.8,6,7.6,9.7c2,4.4,2.9,9.1,2.8,13.9
		c0.1,5.5-1.3,11-4.1,15.8c-2.8,4.6-6.6,8.5-11.1,11.5c-5,3.3-10.6,5.7-16.4,7c-6.6,1.6-13.4,2.3-20.2,2.3
		c-6.7,0.1-13.4-0.9-19.8-2.9c-5.8-1.7-11.2-4.5-16-8.1c-4.4-3.3-8.1-7.6-10.7-12.4c-2.6-4.9-4-10.3-3.9-15.8h27.4
		c0,2,0.7,3.9,1.9,5.5c1.4,1.9,3.1,3.6,5,4.9c4.7,3.3,10.4,5,16.1,5c5.5,0.2,11-1,16-3.3c4.4-2.2,6.6-5.4,6.6-9.5
		c0.2-2.4-1-4.6-3.1-5.8c-2.9-1.5-5.9-2.6-9.1-3.2l-24.6-6.2c-4.4-1.2-8.7-2.7-12.9-4.6c-3.9-1.8-7.5-4.1-10.7-7
		c-3-2.8-5.5-6.1-7.3-9.8c-1.9-4-2.8-8.4-2.7-12.8c-0.1-5.5,1.2-11,3.9-15.8c2.6-4.5,6.2-8.4,10.5-11.4c4.7-3.2,10-5.6,15.5-7
		c6.2-1.6,12.5-2.4,18.9-2.4c6.3-0.1,12.6,1,18.6,3.1c5.4,1.9,10.5,4.7,14.9,8.4c4.1,3.4,7.5,7.6,9.9,12.4c2.4,4.7,3.6,10,3.6,15.3
		h-27.2C180,530.3,179.6,528.5,178.7,526.9z"/>
	<path class="st1" d="M249.5,646.3l14.2-36.8l-44-113.2h29.4l29,75.4h0.4l29-75.4h29.2l-58,150H249.5z"/>
	<path class="st1" d="M351.7,496.3h25.8v16.6h0.4c3.3-5.8,8-10.7,13.7-14.2c6.1-3.9,13.5-5.8,22.3-5.8c6.3-0.1,12.5,1.1,18.2,3.6
		c5.4,2.3,10.2,5.8,14.1,10.1c4.1,4.5,7.2,9.8,9.2,15.6c2.3,6.4,3.4,13.1,3.3,19.9v70h-28v-66.4c0-3.4-0.6-6.8-2-10
		c-2.6-6.1-7.5-11-13.6-13.6c-3.1-1.3-6.4-2-9.8-2c-3.4,0-6.8,0.6-10,2c-6.1,2.6-11,7.5-13.6,13.6c-1.4,3.2-2,6.6-2,10v66.4h-28
		V496.3z"/>
	<path class="st1" d="M577.9,592.7c-2.2,3.1-4.6,6.1-7.2,8.8c-2.7,2.8-5.8,5.3-9.1,7.3c-3.5,2.1-7.3,3.8-11.3,4.9
		c-4.4,1.2-8.9,1.8-13.4,1.8c-15.5,0.1-30.4-6.2-41.1-17.5c-5.4-5.7-9.6-12.3-12.5-19.5c-3.1-7.8-4.7-16-4.6-24.4
		c-0.1-8.4,1.5-16.6,4.6-24.4c2.9-7.2,7.1-13.8,12.5-19.4c5.3-5.5,11.5-9.8,18.5-12.8c7.1-3.1,14.8-4.6,22.6-4.6
		c9.2,0,16.9,2,23.2,6c6,3.8,11.3,8.6,15.6,14.2h0.4v-51h28v150h-25.8v-19.4H577.9z M573.4,540.9c-3.5-8.1-10-14.6-18.1-18.1
		c-4.2-1.8-8.7-2.7-13.2-2.7c-4.6,0-9.2,0.9-13.4,2.7c-4,1.7-7.7,4.2-10.8,7.3c-3.1,3.1-5.5,6.8-7.2,10.8c-1.7,4.2-2.6,8.7-2.6,13.2
		c0,4.6,0.9,9.1,2.6,13.3c1.6,4.1,4.1,7.8,7.2,10.9c3.1,3.1,6.8,5.6,10.8,7.3c4.2,1.8,8.8,2.7,13.4,2.7c4.5,0,9-0.9,13.2-2.7
		c8.2-3.5,14.7-10,18.1-18.2c1.8-4.2,2.7-8.7,2.7-13.3C576.1,549.6,575.2,545.1,573.4,540.9z"/>
	<path class="st1" d="M630.9,462.5c6.2-6.1,16.2-6.1,22.4,0c3,2.9,4.7,7,4.6,11.2c0.1,4.2-1.6,8.3-4.6,11.2
		c-6.2,6.1-16.2,6.1-22.4,0c-3-2.9-4.7-7-4.6-11.2C626.2,469.5,627.9,465.4,630.9,462.5z M656.1,612.1h-28V496.3h28V612.1z"/>
	<path class="st1" d="M758.9,525.2c-5.7-3.8-12.5-5.8-19.4-5.7c-4.5,0-9,0.9-13.2,2.8c-8.2,3.6-14.6,10.3-18.1,18.5
		c-3.6,8.5-3.6,18.1,0,26.6c3.5,8.2,9.9,14.9,18.1,18.5c4.1,1.9,8.7,2.8,13.2,2.8c6.9,0.1,13.7-1.9,19.4-5.7
		c5.5-3.7,9.8-8.9,12.2-15.1h29c-1.3,6.9-3.9,13.5-7.4,19.6c-3.4,5.8-7.8,10.9-13.1,15c-5.4,4.2-11.6,7.5-18.1,9.6
		c-7.1,2.3-14.5,3.5-22,3.4c-8.5,0.1-16.9-1.5-24.8-4.6c-7.5-2.9-14.4-7.3-20.2-12.9c-24.2-23.5-24.8-62.2-1.3-86.5
		c0.4-0.4,0.9-0.9,1.3-1.3c5.8-5.6,12.7-10,20.2-12.9c7.9-3.1,16.3-4.7,24.8-4.6c7.5-0.1,14.9,1.1,22,3.4c6.5,2.1,12.6,5.4,18,9.6
		c5.2,4.2,9.7,9.3,13.1,15c3.6,6.1,6.1,12.7,7.5,19.6h-29C768.7,534.1,764.4,528.9,758.9,525.2z"/>
	<path class="st1" d="M909.1,595.1c-2.1,2.8-4.4,5.3-6.9,7.7c-5.5,5.2-12.1,8.9-19.3,11c-4.1,1.2-8.3,1.7-12.6,1.7
		c-15.5,0.1-30.4-6.2-41.1-17.5c-5.3-5.7-9.6-12.3-12.5-19.5c-3.1-7.8-4.7-16-4.6-24.4c-0.1-8.4,1.5-16.6,4.6-24.4
		c2.9-7.2,7.1-13.8,12.5-19.4c5.3-5.5,11.5-9.8,18.5-12.8c7.1-3.1,14.8-4.6,22.6-4.6c4.3,0,8.5,0.5,12.6,1.6c3.7,1,7.3,2.5,10.6,4.4
		c3.1,1.8,6.1,4,8.7,6.5c2.5,2.4,4.8,4.9,6.9,7.7h0.4v-16.8h27.8v115.8h-27.8v-17H909.1z M906.9,540.9c-1.7-4-4.1-7.7-7.2-10.8
		c-3.1-3.1-6.8-5.6-10.8-7.3c-4.2-1.8-8.8-2.7-13.4-2.7c-4.5,0-9,0.9-13.2,2.7c-8.1,3.5-14.6,10-18.1,18.1
		c-1.8,4.2-2.7,8.7-2.7,13.2c0,4.6,0.9,9.1,2.7,13.3c3.4,8.2,9.9,14.7,18.1,18.2c4.2,1.8,8.7,2.7,13.2,2.7c4.6,0,9.2-0.9,13.4-2.7
		c4-1.7,7.7-4.2,10.8-7.3c3.1-3.1,5.6-6.8,7.2-10.9c1.7-4.2,2.6-8.7,2.6-13.3C909.5,549.6,908.6,545.1,906.9,540.9L906.9,540.9z"/>
	<path class="st1" d="M964.1,462.5c6.2-6.1,16.2-6.1,22.4,0c3,2.9,4.7,7,4.6,11.2c0.1,4.2-1.6,8.3-4.6,11.2
		c-6.2,6.1-16.2,6.1-22.4,0c-3-2.9-4.7-7-4.6-11.2C959.4,469.5,961.1,465.4,964.1,462.5z M989.3,612.1h-28V496.3h28V612.1z"/>
</g>
</svg>
