<svg width="564" height="150" viewBox="0 0 564 150" fill="none" xmlns="http://www.w3.org/2000/svg">
<g clip-path="url(#clip0)">
<path d="M124.512 64.9331C124.101 64.1252 123.542 63.4001 122.863 62.7946C122.093 62.1119 121.205 61.5722 120.242 61.2011C119.124 60.7682 117.932 60.5545 116.732 60.5722C115.689 60.5677 114.65 60.7089 113.646 60.9915C112.734 61.2393 111.865 61.6209 111.067 62.1237C110.363 62.5711 109.759 63.1561 109.291 63.8429C108.848 64.485 108.612 65.2453 108.614 66.0233C108.614 67.1415 108.995 67.9103 109.756 68.3296C110.715 68.8305 111.72 69.2377 112.758 69.5456L123.244 72.2293C125.214 72.7141 127.15 73.3305 129.036 74.0743C130.766 74.7407 132.379 75.6747 133.814 76.8418C135.163 77.9568 136.259 79.3432 137.027 80.9092C137.867 82.7364 138.272 84.7306 138.211 86.7378C138.262 89.0626 137.662 91.356 136.478 93.363C135.292 95.2946 133.689 96.9414 131.785 98.1852C129.666 99.5614 127.318 100.555 124.85 101.12C122.053 101.78 119.185 102.103 116.31 102.085C113.473 102.107 110.649 101.696 107.938 100.869C105.5 100.138 103.21 98.9884 101.173 97.4724C99.3092 96.0781 97.7668 94.3054 96.6489 92.2728C95.5442 90.2378 94.9769 87.9586 94.9999 85.6475H106.585C106.601 86.481 106.882 87.2881 107.388 87.9538C107.97 88.753 108.685 89.4478 109.502 90.0085C111.506 91.3724 113.879 92.1033 116.31 92.1051C118.642 92.1721 120.959 91.6983 123.075 90.7213C124.935 89.7988 125.865 88.471 125.865 86.7378C125.899 86.2512 125.794 85.765 125.562 85.3348C125.331 84.9047 124.981 84.548 124.554 84.3057C123.342 83.6804 122.047 83.2286 120.707 82.9639L110.306 80.3641C108.435 79.8775 106.61 79.2321 104.851 78.4352C103.199 77.6954 101.673 76.7052 100.327 75.5C99.0413 74.3401 97.9932 72.9448 97.2408 71.3906C96.4546 69.7106 96.0643 67.8752 96.0993 66.0233C96.048 63.7091 96.6171 61.4229 97.7482 59.3981C98.8493 57.4956 100.366 55.8622 102.188 54.6178C104.185 53.2717 106.402 52.2786 108.741 51.6826C111.349 50.9989 114.036 50.6605 116.732 50.6762C119.41 50.6517 122.072 51.0917 124.597 51.9761C126.89 52.7712 129.023 53.9638 130.897 55.4984C132.634 56.9316 134.058 58.7008 135.082 60.698C136.098 62.6856 136.62 64.8853 136.605 67.1136H125.104C125.079 66.3512 124.877 65.6048 124.512 64.9331V64.9331Z" fill="black"/>
<path d="M154.447 115L160.451 99.569L141.847 52.1019H154.278L166.54 83.7187H166.709L178.97 52.1019H191.316L166.793 115H154.447Z" fill="black"/>
<path d="M197.659 52.1019H208.567V59.0627H208.736C210.123 56.6197 212.117 54.5698 214.529 53.1083C217.091 51.4897 220.234 50.679 223.958 50.6762C226.601 50.6418 229.222 51.156 231.653 52.1858C233.92 53.1633 235.952 54.6068 237.614 56.4209C239.331 58.3273 240.653 60.55 241.504 62.9623C242.457 65.6417 242.929 68.4659 242.899 71.3068V100.659H231.061V72.8164C231.074 71.3757 230.786 69.948 230.215 68.6232C229.101 66.0649 227.044 64.025 224.465 62.9204C223.157 62.3601 221.746 62.0746 220.321 62.0818C218.869 62.0683 217.429 62.3539 216.093 62.9204C213.514 64.025 211.457 66.0649 210.343 68.6232C209.77 69.9474 209.482 71.3755 209.497 72.8164V100.659H197.659V52.1019Z" fill="black"/>
<path d="M293.299 92.5245C292.379 93.8289 291.361 95.0624 290.254 96.2145C289.113 97.3982 287.819 98.4275 286.407 99.2756C284.913 100.167 283.306 100.858 281.629 101.33C279.786 101.846 277.878 102.1 275.963 102.085C272.715 102.103 269.498 101.461 266.509 100.199C263.52 98.937 260.824 97.0815 258.586 94.7469C256.322 92.3748 254.529 89.6008 253.301 86.5701C251.98 83.3196 251.319 79.8428 251.356 76.3387C251.319 72.8346 251.98 69.3578 253.301 66.1073C254.523 63.0864 256.317 60.3252 258.586 57.9725C260.806 55.6835 263.465 53.8585 266.408 52.6052C269.424 51.3125 272.678 50.6556 275.963 50.6763C279.853 50.6763 283.123 51.5149 285.773 53.1922C288.311 54.7724 290.544 56.7888 292.368 59.1466H292.537V37.7612H304.376V100.659H293.468V92.5245H293.299ZM291.396 70.8037C289.927 67.3899 287.185 64.6708 283.743 63.214C281.982 62.4571 280.081 62.0715 278.162 62.0818C276.215 62.0651 274.285 62.4507 272.496 63.214C270.792 63.9372 269.242 64.9761 267.93 66.275C266.625 67.5719 265.591 69.1107 264.886 70.8037C264.147 72.5565 263.773 74.4391 263.786 76.3387C263.776 78.2516 264.15 80.1474 264.886 81.9157C265.583 83.6252 266.618 85.1791 267.93 86.4863C269.242 87.7852 270.792 88.8241 272.496 89.5473C274.285 90.3106 276.215 90.6962 278.162 90.6795C280.081 90.6898 281.982 90.3042 283.743 89.5473C287.2 88.0905 289.946 85.352 291.396 81.9157C292.157 80.1538 292.546 78.2556 292.537 76.3387C292.549 74.4351 292.16 72.55 291.396 70.8037V70.8037Z" fill="black"/>
<path d="M315.703 37.9289C316.964 36.6926 318.666 35.9992 320.439 35.9992C322.212 35.9992 323.913 36.6926 325.174 37.9289C325.805 38.5384 326.303 39.2696 326.637 40.0773C326.972 40.8851 327.136 41.7522 327.119 42.6253C327.137 43.4981 326.974 44.3652 326.64 45.173C326.306 45.9808 325.809 46.7121 325.179 47.3217C323.918 48.558 322.216 49.2514 320.443 49.2514C318.67 49.2514 316.968 48.558 315.708 47.3217C315.077 46.712 314.579 45.9808 314.245 45.1731C313.91 44.3654 313.746 43.4983 313.763 42.6253C313.746 41.7526 313.91 40.8859 314.244 40.0782C314.577 39.2706 315.074 38.5392 315.703 37.9289V37.9289ZM326.358 100.659H314.519V52.1019H326.358V100.659Z" fill="black"/>
<path d="M369.823 64.2203C367.4 62.6099 364.537 61.7757 361.621 61.8301C359.698 61.8202 357.796 62.2206 356.044 63.0042C352.589 64.5278 349.851 67.3027 348.391 70.7617C347.638 72.526 347.249 74.4226 347.249 76.3386C347.249 78.2547 347.638 80.1512 348.391 81.9156C349.851 85.3745 352.589 88.1495 356.044 89.673C357.798 90.4572 359.701 90.8576 361.625 90.8471C364.541 90.9016 367.404 90.0673 369.827 88.457C372.155 86.9145 373.954 84.7061 374.986 82.1252H387.247C386.677 85.0195 385.619 87.7979 384.118 90.3439C382.687 92.7668 380.808 94.9006 378.58 96.6337C376.282 98.4037 373.693 99.7656 370.927 100.659C367.924 101.631 364.783 102.112 361.625 102.085C358.038 102.11 354.479 101.455 351.139 100.156C347.962 98.9261 345.06 97.0881 342.598 94.7468C340.113 92.3561 338.138 89.4949 336.788 86.3328C335.439 83.1708 334.744 79.7722 334.744 76.3386C334.744 72.9051 335.439 69.5065 336.788 66.3444C338.138 63.1823 340.113 60.3211 342.598 57.9304C345.06 55.5892 347.962 53.7512 351.139 52.5212C354.479 51.2239 358.038 50.5693 361.625 50.5923C364.783 50.5676 367.924 51.049 370.927 52.018C373.682 52.9064 376.258 54.269 378.537 56.0435C380.751 57.7916 382.627 59.9225 384.076 62.3333C385.603 64.8712 386.676 67.6517 387.247 70.552H374.986C373.953 67.9706 372.152 65.7621 369.823 64.2203Z" fill="black"/>
<path d="M433.329 93.5308C432.45 94.6864 431.474 95.7665 430.412 96.7596C428.106 98.9258 425.306 100.508 422.252 101.372C420.519 101.86 418.725 102.1 416.924 102.085C413.676 102.103 410.459 101.461 407.47 100.199C404.481 98.937 401.785 97.0815 399.547 94.7468C397.286 92.3723 395.493 89.5989 394.262 86.5701C392.943 83.319 392.283 79.8426 392.317 76.3387C392.283 72.8347 392.943 69.3583 394.262 66.1072C395.488 63.088 397.281 60.3274 399.547 57.9724C401.768 55.6852 404.427 53.8605 407.369 52.6051C410.386 51.3123 413.642 50.6555 416.929 50.6762C418.727 50.6606 420.519 50.8862 422.256 51.3472C423.824 51.7685 425.33 52.3886 426.738 53.1922C428.065 53.958 429.299 54.8725 430.416 55.9177C431.478 56.9109 432.454 57.9909 433.334 59.1465H433.503V52.1019H445.257V100.659H433.503V93.5308H433.329ZM432.399 70.8036C431.694 69.1107 430.659 67.5719 429.355 66.275C428.041 64.9778 426.492 63.9392 424.789 63.2139C423 62.4506 421.07 62.0651 419.123 62.0818C417.205 62.0712 415.306 62.4567 413.546 63.2139C410.104 64.6708 407.362 67.3899 405.893 70.8036C405.129 72.55 404.74 74.435 404.752 76.3387C404.743 78.2555 405.132 80.1537 405.893 81.9156C407.343 85.3519 410.089 88.0905 413.546 89.5473C415.307 90.305 417.208 90.6906 419.127 90.6794C421.075 90.6961 423.004 90.3106 424.793 89.5473C426.496 88.822 428.046 87.7833 429.359 86.4862C430.671 85.1791 431.706 83.6251 432.403 81.9156C433.137 80.1468 433.511 78.2514 433.503 76.3387C433.512 74.439 433.137 72.5567 432.399 70.8036V70.8036Z" fill="black"/>
<path d="M456.584 37.9289C457.845 36.6926 459.546 35.9992 461.32 35.9992C463.093 35.9992 464.794 36.6926 466.055 37.9289C466.686 38.5384 467.183 39.2696 467.518 40.0773C467.852 40.8851 468.016 41.7522 468 42.6253C468.017 43.4984 467.853 44.3657 467.519 45.1735C467.184 45.9814 466.686 46.7125 466.055 47.3217C464.794 48.558 463.093 49.2514 461.32 49.2514C459.546 49.2514 457.845 48.558 456.584 47.3217C455.953 46.7125 455.455 45.9814 455.12 45.1735C454.786 44.3657 454.622 43.4984 454.639 42.6253C454.623 41.7522 454.787 40.8851 455.121 40.0773C455.456 39.2696 455.954 38.5384 456.584 37.9289V37.9289ZM467.243 100.659H455.404V52.1019H467.243V100.659Z" fill="black"/>
</g>
<defs>
<clipPath id="clip0">
<rect width="373" height="79" fill="white" transform="translate(95 36)"/>
</clipPath>
</defs>
</svg>
