<?xml version="1.0" encoding="utf-8"?>
<!-- Generator: Adobe Illustrator 23.1.0, SVG Export Plug-In . SVG Version: 6.00 Build 0)  -->
<svg version="1.1" id="Layer_1" xmlns="http://www.w3.org/2000/svg" xmlns:xlink="http://www.w3.org/1999/xlink" x="0px" y="0px"
	 width="167px" height="34px" viewBox="0 0 167 34" style="enable-background:new 0 0 167 34;" xml:space="preserve">
<style type="text/css">
	.st0{fill:#1A1A1A;}
	.st1{fill:#FFFFFF;}
	.st2{fill-rule:evenodd;clip-rule:evenodd;fill:#333333;}
</style>
<g>
	<path class="st0" d="M162.7,34H4.2C1.8,34,0,32.3,0,30.1V3.9C0,1.7,1.8,0,4.2,0h158.6c2.3,0,4.2,1.7,4.2,3.9v26.2
		C166.9,32.3,165.1,34,162.7,34z"/>
	<path class="st1" d="M11.6,13.4c-1.1,1.1-1.6,2.5-1.6,4s0.6,2.9,1.6,4c1.1,1.1,2.5,1.6,4,1.6c1.5,0,2.9-0.6,4-1.6l5.9-5.9
		c0.5-0.5,1.2-0.8,1.9-0.8c0.7,0,1.4,0.3,1.9,0.8c1.1,1.1,1.1,2.8,0,3.9c-1.1,1.1-2.8,1.1-3.9,0l-1-1l-2,2l1,1
		c1.1,1.1,2.5,1.6,4,1.6c1.5,0,2.9-0.6,4-1.6c1.1-1.1,1.6-2.5,1.6-4s-0.6-2.9-1.6-4c-1.1-1.1-2.5-1.6-4-1.6c-1.5,0-2.9,0.6-4,1.6
		l-5.9,5.9l0,0c-1.1,1.1-2.8,1.1-3.9,0c-1.1-1.1-1.1-2.8,0-3.9c1.1-1.1,2.8-1.1,3.9,0l1,1l2-2l-1-1c-1.1-1.1-2.5-1.6-4-1.6
		C14.1,11.8,12.6,12.3,11.6,13.4L11.6,13.4z"/>
	<g>
		<path class="st1" d="M56.8,21.2c-0.7,0-1.3-0.1-1.8-0.4c-0.5-0.2-0.9-0.6-1.2-1.1c-0.3-0.5-0.4-1-0.5-1.6h1.5
			c0,0.5,0.2,0.9,0.5,1.3c0.3,0.4,0.8,0.5,1.5,0.5c0.6,0,1-0.1,1.3-0.4c0.3-0.3,0.5-0.6,0.5-1c0-0.3-0.1-0.6-0.2-0.8
			c-0.2-0.2-0.4-0.4-0.6-0.5c-0.3-0.1-0.6-0.3-0.9-0.4c-0.3-0.1-0.7-0.2-1.1-0.4c-0.7-0.2-1.3-0.6-1.7-1c-0.4-0.4-0.6-0.9-0.6-1.5
			c0-0.5,0.1-1,0.4-1.4c0.3-0.4,0.6-0.7,1.1-0.9c0.5-0.2,1-0.3,1.7-0.3c0.6,0,1.2,0.1,1.6,0.3c0.5,0.2,0.8,0.5,1.1,1
			c0.3,0.4,0.4,0.9,0.4,1.4h-1.5c0-0.2-0.1-0.5-0.2-0.7c-0.1-0.2-0.3-0.4-0.6-0.6c-0.2-0.1-0.5-0.2-0.9-0.2c-0.5,0-0.8,0.1-1.1,0.3
			c-0.3,0.2-0.4,0.6-0.4,1c0,0.4,0.1,0.7,0.3,0.9c0.2,0.2,0.5,0.4,0.9,0.5c0.4,0.1,0.8,0.3,1.3,0.5c0.5,0.2,0.9,0.3,1.3,0.6
			c0.4,0.2,0.7,0.5,0.9,0.9c0.2,0.4,0.3,0.8,0.3,1.4c0,0.5-0.1,0.9-0.4,1.3c-0.2,0.4-0.6,0.8-1.1,1S57.5,21.2,56.8,21.2z"/>
		<path class="st1" d="M62.4,24l1.6-3.6h-0.4l-2.7-6.2h1.6l2.1,5l2.2-5h1.5L63.9,24H62.4z"/>
		<path class="st1" d="M69.5,21v-6.8h1.3l0.1,1.2c0.2-0.4,0.5-0.8,0.9-1c0.4-0.2,0.9-0.4,1.4-0.4c0.8,0,1.5,0.3,1.9,0.8
			c0.5,0.5,0.7,1.3,0.7,2.3V21h-1.4v-3.8c0-1.3-0.5-2-1.6-2c-0.5,0-1,0.2-1.3,0.6c-0.4,0.4-0.5,0.9-0.5,1.6V21H69.5z"/>
		<path class="st1" d="M80.7,21.2c-0.7,0-1.2-0.2-1.7-0.5c-0.5-0.3-0.9-0.7-1.2-1.3c-0.3-0.5-0.4-1.2-0.4-1.8s0.1-1.3,0.4-1.8
			c0.3-0.5,0.7-1,1.2-1.3c0.5-0.3,1.1-0.5,1.7-0.5c0.5,0,1,0.1,1.4,0.3s0.7,0.5,1,0.9v-4.1h1.5V21h-1.3l-0.2-1.1
			c-0.2,0.3-0.5,0.6-0.9,0.8S81.3,21.2,80.7,21.2z M80.9,19.9c0.6,0,1.1-0.2,1.5-0.6c0.4-0.4,0.6-1,0.6-1.7c0-0.7-0.2-1.2-0.6-1.7
			c-0.4-0.4-0.9-0.6-1.5-0.6c-0.6,0-1.1,0.2-1.5,0.6c-0.4,0.4-0.6,1-0.6,1.7c0,0.4,0.1,0.8,0.3,1.2c0.2,0.3,0.4,0.6,0.8,0.8
			C80.2,19.8,80.5,19.9,80.9,19.9z"/>
		<path class="st1" d="M87.2,12.9c-0.3,0-0.5-0.1-0.7-0.3c-0.2-0.2-0.3-0.4-0.3-0.6c0-0.3,0.1-0.5,0.3-0.6c0.2-0.2,0.4-0.3,0.7-0.3
			c0.3,0,0.5,0.1,0.7,0.3c0.2,0.2,0.3,0.4,0.3,0.6c0,0.3-0.1,0.5-0.3,0.6C87.7,12.8,87.4,12.9,87.2,12.9z M86.4,21v-6.8h1.5V21H86.4
			z"/>
		<path class="st1" d="M93,21.2c-0.7,0-1.3-0.2-1.8-0.5c-0.5-0.3-0.9-0.7-1.2-1.3c-0.3-0.5-0.4-1.2-0.4-1.9c0-0.7,0.1-1.3,0.4-1.9
			c0.3-0.5,0.7-1,1.2-1.3c0.5-0.3,1.1-0.5,1.8-0.5c0.8,0,1.5,0.2,2.1,0.7c0.6,0.4,0.9,1,1.1,1.8h-1.5c-0.1-0.4-0.3-0.7-0.6-0.9
			c-0.3-0.2-0.7-0.3-1.1-0.3c-0.4,0-0.7,0.1-1,0.3c-0.3,0.2-0.5,0.4-0.7,0.8c-0.2,0.3-0.3,0.8-0.3,1.3c0,0.5,0.1,0.9,0.3,1.3
			c0.2,0.3,0.4,0.6,0.7,0.8c0.3,0.2,0.6,0.3,1,0.3c0.4,0,0.8-0.1,1.1-0.3c0.3-0.2,0.5-0.5,0.6-0.9h1.5c-0.2,0.7-0.5,1.3-1.1,1.8
			C94.6,20.9,93.9,21.2,93,21.2z"/>
		<path class="st1" d="M100.1,21.2c-0.6,0-1-0.1-1.4-0.3c-0.4-0.2-0.7-0.4-0.8-0.8c-0.2-0.3-0.3-0.7-0.3-1c0-0.7,0.3-1.2,0.8-1.6
			c0.5-0.4,1.2-0.6,2.2-0.6h1.8v-0.1c0-0.5-0.1-0.9-0.4-1.2c-0.3-0.3-0.7-0.4-1.1-0.4c-0.4,0-0.8,0.1-1,0.3
			c-0.3,0.2-0.5,0.5-0.5,0.9h-1.5c0-0.5,0.2-0.9,0.5-1.3c0.3-0.4,0.7-0.6,1.1-0.8c0.4-0.2,0.9-0.3,1.5-0.3c0.9,0,1.7,0.2,2.2,0.7
			c0.5,0.5,0.8,1.2,0.8,2V21h-1.3l-0.1-1.2c-0.2,0.4-0.5,0.7-0.8,0.9C101.2,21,100.7,21.2,100.1,21.2z M100.4,20
			c0.4,0,0.7-0.1,1-0.3c0.3-0.2,0.5-0.4,0.6-0.7s0.2-0.7,0.3-1h-1.6c-0.6,0-1,0.1-1.2,0.3c-0.2,0.2-0.4,0.5-0.4,0.8
			c0,0.3,0.1,0.6,0.3,0.7C99.7,19.9,100,20,100.4,20z"/>
		<path class="st1" d="M106.3,12.9c-0.3,0-0.5-0.1-0.7-0.3c-0.2-0.2-0.3-0.4-0.3-0.6c0-0.3,0.1-0.5,0.3-0.6c0.2-0.2,0.4-0.3,0.7-0.3
			c0.3,0,0.5,0.1,0.7,0.3c0.2,0.2,0.3,0.4,0.3,0.6c0,0.3-0.1,0.5-0.3,0.6C106.8,12.8,106.6,12.9,106.3,12.9z M105.6,21v-6.8h1.5V21
			H105.6z"/>
		<path class="st1" d="M112.5,21v-9.6h3.1c1.1,0,2,0.2,2.8,0.6c0.7,0.4,1.3,0.9,1.6,1.7c0.4,0.7,0.5,1.6,0.5,2.6
			c0,1-0.2,1.8-0.5,2.5c-0.4,0.7-0.9,1.3-1.6,1.7c-0.7,0.4-1.6,0.6-2.8,0.6H112.5z M113.9,19.8h1.6c0.9,0,1.6-0.1,2.1-0.4
			s0.9-0.7,1.1-1.2c0.2-0.5,0.3-1.2,0.3-1.9c0-0.7-0.1-1.4-0.3-1.9c-0.2-0.5-0.6-1-1.1-1.2s-1.2-0.4-2.1-0.4h-1.6V19.8z"/>
		<path class="st1" d="M125.2,21.2c-0.7,0-1.3-0.1-1.8-0.4c-0.5-0.3-0.9-0.7-1.2-1.2c-0.3-0.5-0.4-1.1-0.4-1.8
			c0-0.7,0.1-1.3,0.4-1.9c0.3-0.5,0.7-1,1.2-1.3c0.5-0.3,1.1-0.5,1.8-0.5c0.7,0,1.2,0.1,1.7,0.4c0.5,0.3,0.9,0.7,1.2,1.2
			c0.3,0.5,0.4,1,0.4,1.6c0,0.1,0,0.2,0,0.3c0,0.1,0,0.2,0,0.3h-5.3c0,0.7,0.3,1.2,0.7,1.5c0.4,0.3,0.8,0.5,1.3,0.5
			c0.4,0,0.8-0.1,1-0.3c0.3-0.2,0.5-0.4,0.6-0.8h1.5c-0.2,0.6-0.5,1.2-1.1,1.6C126.7,20.9,126,21.2,125.2,21.2z M125.2,15.2
			c-0.5,0-0.9,0.1-1.3,0.4c-0.4,0.3-0.6,0.7-0.7,1.3h3.8c0-0.5-0.2-0.9-0.6-1.3C126.2,15.4,125.7,15.2,125.2,15.2z"/>
		<path class="st1" d="M130,24v-9.8h1.3l0.2,1.1c0.2-0.3,0.5-0.6,0.9-0.8s0.9-0.4,1.5-0.4c0.7,0,1.2,0.2,1.7,0.5
			c0.5,0.3,0.9,0.7,1.2,1.3c0.3,0.5,0.4,1.2,0.4,1.8s-0.1,1.3-0.4,1.8c-0.3,0.5-0.7,1-1.2,1.3c-0.5,0.3-1.1,0.5-1.8,0.5
			c-0.5,0-1-0.1-1.4-0.3c-0.4-0.2-0.7-0.5-1-0.9V24H130z M133.6,19.9c0.6,0,1.1-0.2,1.5-0.6c0.4-0.4,0.6-1,0.6-1.7
			c0-0.4-0.1-0.8-0.3-1.2c-0.2-0.3-0.4-0.6-0.8-0.8c-0.3-0.2-0.7-0.3-1.1-0.3c-0.6,0-1.1,0.2-1.5,0.6c-0.4,0.4-0.6,1-0.6,1.7
			c0,0.7,0.2,1.2,0.6,1.7S133,19.9,133.6,19.9z"/>
		<path class="st1" d="M138.8,21v-9.9h1.5V21H138.8z"/>
		<path class="st1" d="M145.3,21.2c-0.6,0-1.2-0.1-1.7-0.4c-0.5-0.3-0.9-0.7-1.2-1.2c-0.3-0.5-0.5-1.2-0.5-1.9
			c0-0.7,0.2-1.3,0.5-1.9c0.3-0.5,0.7-0.9,1.2-1.2c0.5-0.3,1.1-0.4,1.7-0.4c0.6,0,1.2,0.1,1.7,0.4c0.5,0.3,0.9,0.7,1.2,1.2
			c0.3,0.5,0.5,1.2,0.5,1.9c0,0.7-0.2,1.3-0.5,1.9c-0.3,0.5-0.7,0.9-1.2,1.2C146.5,21,145.9,21.2,145.3,21.2z M145.3,19.9
			c0.3,0,0.7-0.1,1-0.3c0.3-0.2,0.5-0.4,0.7-0.8c0.2-0.3,0.3-0.8,0.3-1.3c0-0.5-0.1-0.9-0.3-1.3c-0.2-0.3-0.4-0.6-0.7-0.8
			c-0.3-0.2-0.6-0.3-1-0.3s-0.7,0.1-1,0.3c-0.3,0.2-0.5,0.4-0.7,0.8c-0.2,0.3-0.3,0.8-0.3,1.3c0,0.5,0.1,0.9,0.3,1.3
			c0.2,0.3,0.4,0.6,0.7,0.8C144.6,19.8,144.9,19.9,145.3,19.9z"/>
		<path class="st1" d="M150.5,24l1.6-3.6h-0.4l-2.7-6.2h1.6l2.1,5l2.2-5h1.5L152,24H150.5z"/>
	</g>
</g>
<path class="st2" d="M42.7,34V0h0.9v34H42.7z"/>
</svg>
